<svg width="159" height="32" viewBox="0 0 159 32" fill="none" xmlns="http://www.w3.org/2000/svg">
<path d="M79.1038 0.150879H77.2924V8.7286H79.1038V0.150879Z" fill="#0B0404"/>
<path d="M88.2433 4.58534L86.9621 3.30579L78.1981 12.0584L69.434 3.30579L68.1528 4.58534L78.1981 14.6175L88.2433 4.58534Z" fill="#0B0404"/>
<path d="M0 31.4449V12.0657H12.9699C14.8624 12.0657 16.3848 12.1583 17.5372 12.3433C18.6979 12.5283 19.5768 12.8396 20.174 13.2769C20.7712 13.7059 21.175 14.2905 21.3852 15.0306C21.5955 15.7624 21.7006 16.675 21.7006 17.7685V18.2731C21.7006 19.3161 21.5913 20.2035 21.3726 20.9352C21.1623 21.6586 20.7502 22.2432 20.1362 22.689C19.5222 23.1347 18.6348 23.4628 17.4741 23.6731C16.3133 23.8749 14.7867 23.9759 12.8942 23.9759H2.4224V31.4449H0ZM19.2783 17.7685C19.2783 16.9694 19.2026 16.3302 19.0512 15.8507C18.8998 15.3713 18.597 15.0096 18.1428 14.7657C17.6886 14.5218 17.0115 14.362 16.1115 14.2863C15.2115 14.2022 14.0087 14.1601 12.5031 14.1601H2.4224V21.8815H12.5031C14.0087 21.8815 15.2115 21.8352 16.1115 21.7427C17.0115 21.6418 17.6886 21.4651 18.1428 21.2128C18.597 20.9521 18.8998 20.5862 19.0512 20.1152C19.2026 19.6357 19.2783 19.0217 19.2783 18.2731V17.7685Z" fill="#0B0404"/>
<path d="M40.9158 27.13C40.9158 28.2151 40.7518 29.0688 40.4238 29.6912C40.1041 30.3136 39.6121 30.7678 38.9476 31.0538C38.2831 31.3398 37.4336 31.5206 36.3991 31.5963C35.3729 31.6804 34.1491 31.7225 32.7276 31.7225C31.1043 31.7225 29.7248 31.6384 28.5893 31.4702C27.4623 31.3103 26.5497 30.9781 25.8515 30.4734C25.1618 29.9604 24.6572 29.195 24.3375 28.1772C24.0263 27.1595 23.8707 25.8011 23.8707 24.102C23.8707 22.4534 24.0221 21.1329 24.3249 20.1404C24.6361 19.1479 25.1366 18.3993 25.8263 17.8946C26.516 17.39 27.4202 17.0535 28.5389 16.8853C29.666 16.7171 31.0412 16.633 32.6645 16.633C34.5234 16.633 36.0626 16.7633 37.2822 17.0241C38.5018 17.2848 39.4102 17.7811 40.0074 18.5128C40.613 19.2446 40.9158 20.317 40.9158 21.7301V24.8464H26.3057C26.3141 25.923 26.3898 26.7852 26.5328 27.4328C26.6758 28.0805 26.9618 28.5683 27.3908 28.8964C27.8197 29.2244 28.459 29.4431 29.3085 29.5524C30.1664 29.6534 31.3061 29.7038 32.7276 29.7038C34.0061 29.7038 35.0365 29.6786 35.8187 29.6281C36.6093 29.5777 37.2065 29.4683 37.6103 29.3001C38.0224 29.1235 38.3 28.8627 38.443 28.5179C38.5859 28.173 38.6574 27.7104 38.6574 27.13H40.9158ZM32.6645 18.6516C31.2935 18.6516 30.1875 18.7021 29.3463 18.803C28.5136 18.904 27.8786 19.1016 27.4412 19.396C27.0039 19.682 26.7053 20.111 26.5454 20.6829C26.394 21.2549 26.3141 22.0077 26.3057 22.9413H38.5944V21.7301C38.5944 21.1245 38.5229 20.624 38.3799 20.2287C38.2453 19.825 37.9761 19.5096 37.5724 19.2825C37.1687 19.047 36.5715 18.8829 35.7808 18.7904C34.9986 18.6979 33.9598 18.6516 32.6645 18.6516Z" fill="#0B0404"/>
<path d="M51.7283 31.7225C49.9872 31.7225 48.5489 31.63 47.4134 31.4449C46.2863 31.2683 45.4452 30.873 44.8901 30.259C44.3433 29.6449 44.07 28.6903 44.07 27.395C44.07 26.0744 44.3265 25.1072 44.8396 24.4931C45.3611 23.8707 46.1812 23.467 47.2998 23.2819C48.4269 23.0969 49.9031 23.0044 51.7283 23.0044C53.2086 23.0044 54.4493 23.038 55.4502 23.1053C56.4511 23.1726 57.3469 23.2904 58.1376 23.4586C58.1207 22.3399 58.045 21.4609 57.9105 20.8217C57.7759 20.174 57.5235 19.6946 57.1535 19.3834C56.7834 19.0722 56.2408 18.8745 55.5259 18.7904C54.8194 18.6979 53.8773 18.6516 52.6998 18.6516C51.354 18.6516 50.2984 18.6811 49.533 18.7399C48.776 18.7988 48.2251 18.904 47.8802 19.0554C47.5354 19.2068 47.3167 19.4255 47.2241 19.7114C47.14 19.9974 47.098 20.3675 47.098 20.8217H44.6756C44.6756 19.9133 44.7975 19.1815 45.0415 18.6264C45.2938 18.0713 45.7186 17.6507 46.3157 17.3647C46.9129 17.0788 47.7288 16.8853 48.7634 16.7844C49.8064 16.6834 51.1185 16.633 52.6998 16.633C54.3988 16.633 55.7656 16.7423 56.8002 16.961C57.8432 17.1797 58.6338 17.575 59.1721 18.147C59.7188 18.7105 60.0847 19.5012 60.2698 20.5189C60.4632 21.5366 60.56 22.8488 60.56 24.4553V31.4449H58.1376V30.4482C57.8516 30.751 57.4563 30.9949 56.9516 31.18C56.4469 31.365 55.774 31.4996 54.9329 31.5837C54.1002 31.6762 53.032 31.7225 51.7283 31.7225ZM51.7283 29.7543C53.1666 29.7543 54.3147 29.7375 55.1726 29.7038C56.0306 29.6702 56.6698 29.5777 57.0904 29.4263C57.5193 29.2749 57.8011 29.0309 57.9357 28.6945C58.0703 28.358 58.1376 27.887 58.1376 27.2814V25.0483L51.7283 24.9726C50.5928 24.9558 49.676 24.9726 48.9779 25.023C48.2882 25.0651 47.7625 25.166 47.4008 25.3258C47.0391 25.4772 46.7952 25.7212 46.669 26.0576C46.5513 26.3856 46.4924 26.8314 46.4924 27.395C46.4924 27.9417 46.5513 28.3749 46.669 28.6945C46.7952 29.0141 47.0391 29.2496 47.4008 29.401C47.7625 29.5524 48.2882 29.6492 48.9779 29.6912C49.676 29.7333 50.5928 29.7543 51.7283 29.7543Z" fill="#0B0404"/>
<path d="M63.9917 31.4449V16.9105H66.4141V18.9166C66.6832 18.4876 66.9524 18.1301 67.2215 17.8442C67.4991 17.5582 67.8566 17.3311 68.294 17.1629C68.7398 16.9946 69.3411 16.8769 70.0981 16.8096C70.8551 16.7339 71.8519 16.696 73.0883 16.696V18.7273C71.4229 18.7273 70.1318 18.7862 69.215 18.904C68.3066 19.0217 67.6547 19.2236 67.2594 19.5096C66.8641 19.7871 66.6244 20.174 66.5402 20.6703C66.4561 21.1666 66.4141 21.7974 66.4141 22.5628V31.4449H63.9917Z" fill="#0B0404"/>
<path d="M83.4466 22.0077V21.503C83.4466 19.7871 83.5307 18.3488 83.6989 17.1881C83.8671 16.019 84.1573 15.0685 84.5695 14.3367C84.9816 13.605 85.5409 13.0456 86.2475 12.6587C86.9624 12.2718 87.8582 12.0111 88.9348 11.8765C90.0114 11.7335 91.3067 11.662 92.8207 11.662H97.5646C99.5496 11.662 101.16 11.7377 102.397 11.8891C103.642 12.0405 104.596 12.3307 105.261 12.7597C105.934 13.1886 106.396 13.8152 106.649 14.6395C106.901 15.4554 107.027 16.5278 107.027 17.8568H104.605C104.605 16.8559 104.516 16.0778 104.34 15.5227C104.163 14.9592 103.831 14.5554 103.343 14.3115C102.855 14.0592 102.144 13.9036 101.211 13.8447C100.286 13.7858 99.0702 13.7564 97.5646 13.7564H92.8207C91.618 13.7564 90.6044 13.7942 89.7801 13.8699C88.9558 13.9372 88.283 14.1012 87.7615 14.362C87.2484 14.6143 86.8531 15.018 86.5755 15.5732C86.3063 16.1283 86.1213 16.8853 86.0204 17.8442C85.9194 18.803 85.869 20.0226 85.869 21.503V22.0077C85.869 23.4375 85.9194 24.6235 86.0204 25.5656C86.1213 26.5076 86.3063 27.2604 86.5755 27.8239C86.8531 28.3875 87.2484 28.808 87.7615 29.0856C88.283 29.3632 88.9558 29.544 89.7801 29.6281C90.6044 29.7122 91.618 29.7543 92.8207 29.7543H98.4099C99.7978 29.7543 100.916 29.6996 101.766 29.5903C102.615 29.4725 103.259 29.2286 103.696 28.8585C104.142 28.48 104.441 27.9081 104.592 27.1426C104.743 26.3688 104.819 25.3258 104.819 24.0137V23.2693H95.5459V21.2507H107.242V24.0137C107.242 25.6539 107.103 26.987 106.825 28.0132C106.548 29.0393 106.077 29.8342 105.412 30.3977C104.756 30.9529 103.856 31.3314 102.712 31.5332C101.577 31.7435 100.143 31.8487 98.4099 31.8487H92.8207C90.9282 31.8487 89.3722 31.7183 88.1526 31.4575C86.933 31.2052 85.9783 30.7342 85.2886 30.0445C84.6073 29.3548 84.1279 28.3623 83.8503 27.0669C83.5811 25.7716 83.4466 24.0852 83.4466 22.0077Z" fill="#0B0404"/>
<path d="M127.567 27.13C127.567 28.2151 127.403 29.0688 127.075 29.6912C126.755 30.3136 126.263 30.7678 125.599 31.0538C124.934 31.3398 124.085 31.5206 123.05 31.5963C122.024 31.6804 120.8 31.7225 119.379 31.7225C117.755 31.7225 116.376 31.6384 115.241 31.4702C114.113 31.3103 113.201 30.9781 112.503 30.4734C111.813 29.9604 111.308 29.195 110.989 28.1772C110.678 27.1595 110.522 25.8011 110.522 24.102C110.522 22.4534 110.673 21.1329 110.976 20.1404C111.287 19.1479 111.788 18.3993 112.477 17.8946C113.167 17.39 114.071 17.0535 115.19 16.8853C116.317 16.7171 117.692 16.633 119.316 16.633C121.175 16.633 122.714 16.7633 123.933 17.0241C125.153 17.2848 126.061 17.7811 126.659 18.5128C127.264 19.2446 127.567 20.317 127.567 21.7301V24.8464H112.957C112.965 25.923 113.041 26.7852 113.184 27.4328C113.327 28.0805 113.613 28.5683 114.042 28.8964C114.471 29.2244 115.11 29.4431 115.96 29.5524C116.818 29.6534 117.957 29.7038 119.379 29.7038C120.657 29.7038 121.688 29.6786 122.47 29.6281C123.261 29.5777 123.858 29.4683 124.261 29.3001C124.674 29.1235 124.951 28.8627 125.094 28.5179C125.237 28.173 125.309 27.7104 125.309 27.13H127.567ZM119.316 18.6516C117.945 18.6516 116.839 18.7021 115.998 18.803C115.165 18.904 114.53 19.1016 114.092 19.396C113.655 19.682 113.356 20.111 113.197 20.6829C113.045 21.2549 112.965 22.0077 112.957 22.9413H125.246V21.7301C125.246 21.1245 125.174 20.624 125.031 20.2287C124.896 19.825 124.627 19.5096 124.224 19.2825C123.82 19.047 123.223 18.8829 122.432 18.7904C121.65 18.6979 120.611 18.6516 119.316 18.6516Z" fill="#0B0404"/>
<path d="M130.759 31.4449V16.9105H133.181V18.7147C133.543 18.2269 133.976 17.8189 134.481 17.4909C134.986 17.1629 135.629 16.9189 136.411 16.7591C137.202 16.5909 138.211 16.5068 139.439 16.5068C140.962 16.5068 142.202 16.7129 143.161 17.125C144.12 17.5372 144.827 18.2479 145.281 19.2572C145.693 18.618 146.189 18.0965 146.77 17.6928C147.35 17.2806 148.077 16.982 148.952 16.797C149.835 16.6035 150.92 16.5068 152.207 16.5068C153.738 16.5068 154.983 16.7171 155.942 17.1376C156.901 17.5498 157.603 18.2563 158.049 19.2572C158.503 20.2582 158.73 21.6292 158.73 23.3703V31.4449H156.308V23.3703C156.308 22.0413 156.169 21.032 155.891 20.3423C155.614 19.6441 155.151 19.1689 154.504 18.9166C153.864 18.6558 152.998 18.5255 151.905 18.5255C149.76 18.5255 148.229 18.8409 147.312 19.4717C146.404 20.1025 145.949 21.1329 145.949 22.5628V22.5502C145.958 22.8109 145.962 23.0843 145.962 23.3703V31.4449H143.54V23.3703C143.54 22.0413 143.401 21.032 143.123 20.3423C142.846 19.6441 142.383 19.1689 141.736 18.9166C141.096 18.6558 140.23 18.5255 139.136 18.5255C136.992 18.5255 135.461 18.8409 134.544 19.4717C133.636 20.1025 133.181 21.1329 133.181 22.5628V31.4449H130.759Z" fill="#0B0404"/>
<path d="M76.9868 31.4454V16.6432H79.4092V31.4454H76.9868Z" fill="#0B0404"/>
</svg>
